<svg id="Layer_1" data-name="Layer 1" xmlns="http://www.w3.org/2000/svg" viewBox="0 0 275.73 277.55"><title>handdrawn-border-v2</title><path d="M258.78,266.25s-21.37,4.11-74.44-2.29c-25.69-3.1-76.54,3.88-102.36,2.29-44.5-2.75-66.36,0-66.36,0A5.63,5.63,0,0,1,10,260.66c-.06-11.15,6.51-55.79,2.32-83.62-2.71-18,0-86.1,2.75-108.89,3.21-26.9-2.52-27.58-3.66-43.92-.23-3.25,1.41-12.35,4.67-12.35,0,0,42.93,4.66,57.09,2.75,33.85-4.58,48.18-4.21,64.17-2.75,20,1.83,60.3-.67,67.75,0,29.17,2.64,45.57-5.33,53.69,0a5.62,5.62,0,0,1,5.62,5.62s.76,25.58,0,34.07c-2.75,30.76,4.06,96.27,0,128-2.53,19.74-.77,80.88,0,81A5.63,5.63,0,0,1,258.78,266.25Z" style="fill:none;stroke:#000;stroke-miterlimit:10;stroke-width:20px"/></svg>