<svg id="Layer_1" data-name="Layer 1" xmlns="http://www.w3.org/2000/svg" viewBox="0 0 288 288"><title>handdrawn-border-v3</title><path d="M271.5,255.5c0,4.23.06,14-9,14-14,0-25,0-46.5.5,0,0-33.48-4.2-93.17,0C101.5,271.5,72,270,72,270l-44.5,2.5c-7.08,0-9.15-6.9-10.34-11.26a19.16,19.16,0,0,1-.58-6.17L18,216s4.5-34.5,0-99.55C17.23,105.36,18,72,18,72L14.5,25.5c-.5-8,7-11,17-9L72,18s77.5,4.5,114.4,0c7.35-.9,29.6,0,29.6,0l31.73-1.43a26.77,26.77,0,0,1,3.47.09c9.39.88,18.3.84,19.3,13.84L270,72s-2.54,42.38,0,65.89A381,381,0,0,1,270,216Z" style="fill:none;stroke:#000;stroke-miterlimit:10;stroke-width:7px"/></svg>