<svg id="Layer_1" data-name="Layer 1" xmlns="http://www.w3.org/2000/svg" viewBox="0 0 288 288"><title>handdrawn-border-gap</title><path d="M48.5,273.5l-17.62,1.42c-7.09,0-9.16-6.91-10.34-11.27a19.1,19.1,0,0,1-.58-6.17l1.42-39.06s4.5-34.5,0-99.56c-.77-11.08,0-44.44,0-44.44l-3.5-46.5c-.5-8,7-11,17-9l40.5,1.5s77.5,4.5,114.4,0c7.34-.9,29.6,0,29.6,0L251.1,19a25.29,25.29,0,0,1,3.48.09c9.38.87,18.3.84,19.3,13.84l-.5,41.5s-2.55,42.37,0,65.89a381,381,0,0,1,0,78.11l1.5,39.5c0,4.23.05,14-9,14-14,0-25,0-46.5.5,0,0-33.48-4.2-93.17,0-21.33,1.5-50.83,0-50.83,0l-5.88.08" style="fill:none;stroke:#000;stroke-linecap:round;stroke-miterlimit:10;stroke-width:7px"/></svg>